/* XPM */
static char * image_creator_xpm[] = {
"32 32 2 1",
" 	c None",
".	c #068CF4",
"....      ....                  ",
".....    .....                  ",
" ....    ....                   ",
" .. ..  .. ..                   ",
" .. ..  .. ..                   ",
" .. ..  .. ..                   ",
" ..  ....  ..                   ",
" ..  ....  ..                   ",
" ..  ...   ..                   ",
" ..   ..   ..                   ",
"....  ..  ....  ....            ",
"....  .   ....  ....            ",
"                 ..             ",
"                 ..             ",
"                 ..             ",
"                 ..             ",
"                 ..             ",
"                 ..             ",
"                 ..             ",
"                 ..             ",
"                ....    ..... ..",
"                ....   .........",
"                      ...   ....",
"                     ...      ..",
"                     ..         ",
"                     ..         ",
"                     ..         ",
"                     ..        .",
"                     ...      ..",
"                      ...    ...",
"                       ........ ",
"                        ......  "};
