/* XPM */
static char * image_creator_xpm[] = {
"32 32 86 1",
" 	c #068CF4",
".	c #91CCFA",
"+	c #FFFFFF",
"@	c #94CDFA",
"#	c #38A3F6",
"$	c #39A3F6",
"%	c #32A0F6",
"&	c #D9EDFD",
"*	c #D8EDFD",
"=	c #36A2F6",
"-	c #8BC9FA",
";	c #80C4F9",
">	c #7EC3F9",
",	c #97CFFA",
"'	c #E2F1FE",
")	c #078CF4",
"!	c #289CF6",
"~	c #FEFFFF",
"{	c #249AF5",
"]	c #0E90F4",
"^	c #EFF8FE",
"/	c #43A8F7",
"(	c #C8E6FD",
"_	c #C2E3FC",
":	c #5EB5F8",
"<	c #9BD1FB",
"[	c #6FBDF9",
"}	c #69BAF8",
"|	c #BEE1FC",
"1	c #EEF7FE",
"2	c #0C8FF4",
"3	c #1B95F5",
"4	c #1693F5",
"5	c #269BF5",
"6	c #54B0F7",
"7	c #85C7FA",
"8	c #ADD9FB",
"9	c #088DF4",
"0	c #E3F2FE",
"a	c #F7FBFF",
"b	c #1492F5",
"c	c #4CACF7",
"d	c #65B8F8",
"e	c #ACD9FB",
"f	c #D0E9FD",
"g	c #5AB3F8",
"h	c #1C96F5",
"i	c #0B8EF4",
"j	c #2299F5",
"k	c #6BBAF8",
"l	c #ABD8FB",
"m	c #DDEFFD",
"n	c #0F90F4",
"o	c #F9FCFF",
"p	c #82C5F9",
"q	c #44A9F7",
"r	c #FCFEFF",
"s	c #AEDAFB",
"t	c #2C9EF6",
"u	c #C1E3FC",
"v	c #F5FAFF",
"w	c #F3FAFE",
"x	c #31A0F6",
"y	c #B3DCFC",
"z	c #48ABF7",
"A	c #9CD1FB",
"B	c #2B9DF6",
"C	c #ECF6FE",
"D	c #7CC3F9",
"E	c #40A7F7",
"F	c #259AF5",
"G	c #A7D6FB",
"H	c #EDF7FE",
"I	c #FAFDFF",
"J	c #CDE8FD",
"K	c #5BB3F8",
"L	c #C1E2FC",
"M	c #D3EBFD",
"N	c #2199F5",
"O	c #0D8FF4",
"P	c #A1D4FB",
"Q	c #83C6FA",
"R	c #35A2F6",
"S	c #1191F4",
"T	c #299CF6",
"U	c #6EBCF9",
"   .++++@    +++++++++++++++++++",
"   #++++$    +++++++++++++++++++",
"  % &++* =  ++++++++++++++++++++",
"  - ;++> ,  ++++++++++++++++++++",
"  ')!+~{]^  ++++++++++++++++++++",
"  +/ (_ :+  ++++++++++++++++++++",
"  +< [} |+  ++++++++++++++++++++",
"  +12345~+  ++++++++++++++++++++",
"  ++6  7++  ++++++++++++++++++++",
"  ++8 90++  ++++++++++++++++++++",
"   +abc++    +++++++++++++++++++",
"   ++de++    +++++++++++++++++++",
"++++++++++++++    ++++++++++++++",
"++++++++++++++    ++++++++++++++",
"+++++++++++++++  +++++++++++++++",
"+++++++++++++++  +++++++++++++++",
"+++++++++++++++  +++++++++++++++",
"+++++++++++++++  +++++++++++++++",
"+++++++++++++++  +++++++++++++++",
"+++++++++++++++  +++++++++++++++",
"+++++++++++++++  +++++fghijk'  +",
"+++++++++++++++  ++++li     4  +",
"++++++++++++++    ++mn cfo'p2  +",
"++++++++++++++    ++[ qr++++s  +",
"++++++++++++++++++++t u+++++++++",
"++++++++++++++++++++n v+++++++++",
"++++++++++++++++++++n w+++++++++",
"++++++++++++++++++++x y++++++rzA",
"++++++++++++++++++++p BC+++++D E",
"++++++++++++++++++++^j FGHIJK 9L",
"+++++++++++++++++++++MN      OP+",
"++++++++++++++++++++++^QRS2TUm++"};
