/* XPM */
static char * project_builder_32x32_xpm[] = {
"32 32 3 1",
" 	c None",
".	c #000000",
"+	c #4A26B0",
"                                ",
"                                ",
"                                ",
"   .........                    ",
"   ..........                   ",
"   ...     ...                  ",
"   ...      ...                 ",
"   ...      ...                 ",
"   ...      ...                 ",
"   ...      ...                 ",
"   ...      ... +++++++++       ",
"   ...     ...  +++++++++++     ",
"   ..........   +++     +++     ",
"   .........    +++      +++    ",
"   ...          +++      +++    ",
"   ...          +++      +++    ",
"   ...          +++      +++    ",
"   ...          +++     +++     ",
"   ...          ++++++++++      ",
"   ...          ++++++++++      ",
"   ...          +++      +++    ",
"   ...          +++       ++    ",
"                +++       +++   ",
"                +++       +++   ",
"                +++       +++   ",
"                +++       +++   ",
"                +++      +++    ",
"                +++++++++++     ",
"                ++++++++++      ",
"                                ",
"                                ",
"                                "};
